<?xml version="1.0" encoding="UTF-8"?>
<svg id="Capa_2" data-name="Capa 2" xmlns="http://www.w3.org/2000/svg" viewBox="0 0 1000 247.03">
  <defs>
    <style>
      .cls-1 {
        fill: #1a1a1a;
      }
    </style>
  </defs>
  <g id="Capa_1-2" data-name="Capa 1">
    <g>
      <g>
        <path class="cls-1" d="M112.49,99.04c-.67,1.25-1.41,2.44-2.23,3.55,.69-1.24,1.43-2.42,2.23-3.55Z"/>
        <path class="cls-1" d="M143.04,82.28c-1.59,.28-3.2,.46-4.83,.54,1.6-.28,3.2-.46,4.83-.54Z"/>
        <path class="cls-1" d="M183.06,133.69c-.59,1.93-1.34,3.83-2.24,5.7,.58-1.94,1.33-3.84,2.24-5.7Z"/>
        <path class="cls-1" d="M171.96,209.02c-.21,.96-.44,1.92-.72,2.86,.19-.96,.42-1.91,.72-2.86Z"/>
        <path class="cls-1" d="M209.59,189.76c-1.03-.24-2.06-.54-3.08-.87,1.04,.23,2.07,.52,3.08,.87Z"/>
        <path class="cls-1" d="M183.06,133.69c-.59,1.93-1.34,3.83-2.24,5.7,.58-1.94,1.33-3.84,2.24-5.7Z"/>
        <path class="cls-1" d="M208.88,51.28c-1.08,.38-2.19,.68-3.31,.91,1.09-.35,2.2-.66,3.31-.91Z"/>
        <path class="cls-1" d="M138.21,82.82c1.6-.28,3.2-.46,4.83-.54-1.59,.28-3.2,.46-4.83,.54Z"/>
        <path class="cls-1" d="M174.28,31.23c.37,1.18,.68,2.37,.93,3.57-.39-1.16-.7-2.36-.93-3.57Z"/>
        <path class="cls-1" d="M171.96,209.02c-.21,.96-.44,1.92-.72,2.86,.19-.96,.42-1.91,.72-2.86Z"/>
        <path class="cls-1" d="M209.59,189.76c-1.03-.24-2.06-.54-3.08-.87,1.04,.23,2.07,.52,3.08,.87Z"/>
        <path class="cls-1" d="M63.63,140.38c-.69,1.11-1.43,2.15-2.23,3.14,.68-1.1,1.43-2.15,2.23-3.14Z"/>
        <path class="cls-1" d="M61.94,101.25c.43,.56,.84,1.14,1.22,1.72-.43-.56-.84-1.13-1.22-1.72Z"/>
        <path class="cls-1" d="M112.49,99.04c-.67,1.25-1.41,2.44-2.23,3.55,.69-1.24,1.43-2.42,2.23-3.55Z"/>
        <path class="cls-1" d="M223.6,38.52c-3.23,6.22-8.59,10.61-14.72,12.76-1.11,.25-2.22,.56-3.31,.91-9.6,3.12-18.02,9.86-23.04,19.53-5.6,10.79-5.78,22.96-1.52,33.39,.25,.64,.53,1.28,.83,1.91,3.4,8.31,3.96,17.74,1.21,26.68-.9,1.86-1.66,3.76-2.24,5.7-5.55,18.02,2.38,37.99,19.72,46.98,1.94,1.01,3.92,1.84,5.93,2.5,.01,0,.02,0,.04,0,1.02,.33,2.05,.63,3.08,.87,1.38,.46,2.73,1.04,4.06,1.73,14.43,7.49,20.05,25.24,12.56,39.67-7.49,14.42-25.25,20.04-39.67,12.55-11.9-6.17-17.79-19.33-15.31-31.84,.28-.94,.51-1.9,.72-2.86,3.64-17.09-4.35-35.17-20.6-43.61-3.62-1.88-7.4-3.15-11.2-3.84-.81-.15-1.62-.28-2.42-.37-3.77-.7-7.5-1.96-11.08-3.82-6.15-3.2-11.13-7.78-14.74-13.17l-.04-.07c-.34-.59-.7-1.16-1.09-1.73-2.65-3.92-6.29-7.24-10.79-9.58-12.61-6.54-27.76-3.07-36.37,7.54-.8,.98-1.55,2.03-2.23,3.14,0,0,0,.02-.01,.02-10.05,12.63-27.94,16.81-42.8,9.09C1.7,143.85-4.89,123.05,3.88,106.16c8.77-16.89,29.57-23.47,46.46-14.7,4.71,2.44,8.61,5.82,11.6,9.79,.38,.59,.79,1.16,1.22,1.72,2.55,3.36,5.86,6.22,9.85,8.29,13.04,6.78,28.82,2.82,37.25-8.67,.82-1.11,1.57-2.29,2.23-3.55,6.21-8.8,15.58-14.46,25.72-16.21,1.62-.08,3.24-.26,4.83-.54,11.83-2.05,22.6-9.41,28.56-20.88,4.42-8.51,5.46-17.89,3.61-26.6-.25-1.2-.56-2.39-.93-3.57,0,0,0-.02,0-.03-1.05-5.59-.31-11.55,2.51-16.98,6.72-12.92,22.63-17.96,35.56-11.25,12.93,6.7,17.97,22.63,11.25,35.55Z"/>
        <path class="cls-1" d="M63.63,140.38c-.69,1.11-1.43,2.15-2.23,3.14,.68-1.1,1.43-2.15,2.23-3.14Z"/>
        <path class="cls-1" d="M63.16,102.97c-.43-.56-.84-1.13-1.22-1.72,.43,.56,.84,1.14,1.22,1.72Z"/>
        <path class="cls-1" d="M174.28,31.23c.37,1.18,.68,2.37,.93,3.57-.39-1.16-.7-2.36-.93-3.57Z"/>
        <path class="cls-1" d="M208.88,51.28c-1.08,.38-2.19,.68-3.31,.91,1.09-.35,2.2-.66,3.31-.91Z"/>
        <circle class="cls-1" cx="89.73" cy="26.33" r="19.91"/>
        <circle class="cls-1" cx="255.44" cy="122.09" r="19.91"/>
        <circle class="cls-1" cx="89.71" cy="217.76" r="19.91"/>
      </g>
      <g>
        <path class="cls-1" d="M337.11,185.13h5.51c7.13,0,12.91-5.78,12.91-12.91V61.76h-5.51c-7.13,0-12.91,5.78-12.91,12.91v110.46Z"/>
        <path class="cls-1" d="M451.82,66.64c-6.75-3.25-14.43-4.88-23.02-4.88h-51.56v123.37h5.48c7.14,0,12.93-5.79,12.93-12.93v-27.4h33.14c8.59,0,16.26-1.62,23.02-4.88,6.75-3.25,12.06-7.98,15.93-14.18,3.87-6.2,5.8-13.66,5.8-22.37s-1.93-16.51-5.8-22.65c-3.87-6.14-9.18-10.83-15.93-14.09Zm-2.21,55.98c-3.68,3.74-9.82,5.62-18.42,5.62h-35.54v-49.72h35.54c8.59,0,14.73,1.84,18.42,5.52,3.68,3.68,5.52,10.13,5.52,19.33s-1.84,15.5-5.52,19.24Z"/>
        <path class="cls-1" d="M560,139.92c-2.89-2.76-6.47-4.82-10.77-6.17v-1.47c7.24-.25,13.47-1.75,18.69-4.51,5.22-2.76,9.18-6.65,11.88-11.69,2.7-5.03,4.05-10.93,4.05-17.68,0-7.86-1.81-14.48-5.43-19.89-3.62-5.4-8.72-9.54-15.28-12.43-6.57-2.88-14.33-4.33-23.29-4.33h-52.48v123.37h5.51c7.13,0,12.9-5.78,12.9-12.9v-35.16h15.28c5.03,0,9.11,.55,12.25,1.66,3.13,1.11,5.74,2.83,7.83,5.16,2.09,2.33,4.11,5.28,6.08,8.84l14.35,25.77c2.28,4.1,6.6,6.64,11.29,6.64h13.95l-18.96-34.8c-2.33-4.17-4.94-7.64-7.83-10.4Zm-17.95-18.32h-36.28v-43.09h36.28c8.47,0,14.45,1.72,17.95,5.15,3.5,3.44,5.25,8.9,5.25,16.39s-1.75,13.26-5.25,16.57c-3.5,3.32-9.48,4.97-17.95,4.97Z"/>
        <path class="cls-1" d="M607.65,82.45h0c5.38,0,9.75-4.36,9.75-9.75v-1.64c0-5.38-4.36-9.75-9.75-9.75h-.02c-5.42,0-9.8,4.42-9.75,9.84l.02,1.64c.05,5.35,4.4,9.66,9.75,9.66Z"/>
        <path class="cls-1" d="M598.4,185.13h5.67c7.14,0,12.93-5.79,12.93-12.93V93.06h-5.69c-7.13,0-12.91,5.78-12.91,12.91v79.16Z"/>
        <path class="cls-1" d="M697.19,139c-3.99-2.15-8.87-3.78-14.64-4.88l-15.65-3.13c-6.38-1.35-10.68-2.76-12.89-4.24-2.21-1.47-3.31-4.05-3.31-7.74,0-3.92,1.2-6.84,3.59-8.74,2.39-1.9,7.4-2.85,15.01-2.85,5.64,0,9.91,.68,12.8,2.02,2.88,1.35,4.82,3.16,5.8,5.43,.98,2.28,1.47,4.94,1.47,8.01v1.84h17.86v-1.29c0-7-1.63-12.82-4.88-17.49-3.25-4.66-7.67-8.16-13.26-10.5-5.59-2.33-12.06-3.5-19.43-3.5-11.66,0-20.71,2.49-27.16,7.46-6.44,4.97-9.66,11.57-9.66,19.8,0,5.4,1.1,9.91,3.31,13.53,2.21,3.62,5.28,6.44,9.21,8.47,3.93,2.03,8.53,3.53,13.81,4.51l14.54,2.58c6.75,1.35,11.42,2.8,13.99,4.33,2.58,1.53,3.87,4.26,3.87,8.19,0,2.33-.43,4.33-1.29,5.99-.86,1.66-2.58,2.85-5.16,3.59-2.58,.74-6.44,1.11-11.6,1.11-6.02,0-10.65-.46-13.9-1.38-3.26-.92-5.53-2.48-6.81-4.69-1.29-2.21-1.93-5.03-1.93-8.47v-2.95h-18.23v.37c0,11.05,3.47,19.24,10.41,24.58,6.93,5.34,16.97,8.01,30.11,8.01,11.29,0,20.13-2.3,26.52-6.9,6.38-4.6,9.57-11.2,9.57-19.79,0-5.03-1.01-9.3-3.04-12.8-2.03-3.5-5.04-6.32-9.02-8.47Z"/>
        <path class="cls-1" d="M784.02,99.4l-21.19,30.85h-18.96v-55.57c0-7.14-5.79-12.93-12.93-12.93h-5.67v123.37h5.67c7.14,0,12.93-5.79,12.93-12.93v-25.37h18.96l20.86,32.38c2.38,3.69,6.47,5.93,10.87,5.93h14.86l-31.67-48.24,31.86-43.09h-14.93c-4.26,0-8.24,2.1-10.65,5.61Z"/>
        <path class="cls-1" d="M827.33,82.6h0c5.46,0,9.88-4.42,9.88-9.88v-1.66c0-5.46-4.42-9.88-9.88-9.88h-.02c-5.49,0-9.93,4.48-9.88,9.97l.02,1.66c.05,5.42,4.46,9.79,9.88,9.79Z"/>
        <path class="cls-1" d="M818.08,185.13h5.68c7.13,0,12.91-5.78,12.91-12.91V93.06h-5.68c-7.13,0-12.91,5.78-12.91,12.91v79.16Z"/>
        <path class="cls-1" d="M988.24,93.8c-5.34,0-10.13,3.29-12.04,8.27l-14.31,37.21-7.74,20.25h-1.47l-8.47-20.25-15.82-37.57c-2.02-4.79-6.71-7.91-11.91-7.91h-39.11v-5.71c0-4.05,1.07-7,3.22-8.84,2.15-1.84,5.49-2.76,10.04-2.76h11.05v-14.73h-7.73c-7.49,0-13.84,1.23-19.06,3.68-5.22,2.46-9.11,6.02-11.69,10.68-2.58,4.67-3.87,10.5-3.87,17.49v.18h-.53c-7.13,0-12.91,5.78-12.91,12.91v2.55h13.44v75.87h18.6V109.26h33.64l32.2,73.67-3.78,8.63c-1.6,3.32-3.32,5.49-5.15,6.54-1.84,1.04-4.73,1.57-8.66,1.57h-11.97v15.28c1.35,.37,3.25,.71,5.71,1.01,2.45,.31,4.97,.46,7.55,.46,4.42,0,8.41-.55,11.97-1.66,3.56-1.11,6.72-3.1,9.48-5.98,2.76-2.89,5.25-6.97,7.46-12.25l43.64-102.75h-11.76Z"/>
      </g>
    </g>
  </g>
</svg>